#!OML:ASF F:\VICON\USERDATA\INSTALL\rory3\rory3.ASF
:FULLY-SPECIFIED
:DEGREES
219
root 13.5988 17.7883 3.51257 -170.374 -71.7675 171.231
lowerback 13.6166 2.32203 2.18531
upperback 0.0540918 3.3552 -0.464728
thorax -7.43034 1.52565 -2.38446
lowerneck -22.754 -2.67647 -10.7017
upperneck 30.1384 -2.48144 6.59651
head 14.4006 -1.55971 4.02564
rclavicle -1.4223e-013 1.82882e-014
rhumerus -34.2809 -17.8615 -74.0835
rradius 31.3447
rwrist 7.77762
rhand -15.699 8.09029
rfingers 7.12502
rthumb 10.4905 -21.6279
lclavicle -1.4223e-013 1.82882e-014
lhumerus -34.7759 15.1904 75.3705
lradius 32.7028
lwrist -8.9326
lhand -18.686 22.5348
lfingers 7.12502
lthumb 7.60824 52.378
rfemur -0.86921 1.35842 16.5881
rtibia 26.5232
rfoot -23.2162 0.826079
rtoes 0.238281
lfemur -15.5799 -3.77576 -6.08828
ltibia 25.6111
lfoot -5.30117 1.71796
ltoes -12.8621
220
root 13.5379 17.7728 3.53757 -172.704 -71.128 173.34
lowerback 13.8035 2.37793 2.28135
upperback 0.139434 3.46246 -0.218547
thorax -7.44819 1.57708 -2.20476
lowerneck -22.6692 -2.61531 -10.8313
upperneck 30.0681 -2.37749 6.67943
head 14.342 -1.51863 4.09868
rclavicle -1.85367e-014 0
rhumerus -34.0523 -17.3256 -74.1466
rradius 31.2037
rwrist 7.20574
rhand -15.2752 8.52302
rfingers 7.12502
rthumb 10.8994 -21.1741
lclavicle -1.85367e-014 0
lhumerus -35.0402 15.4627 75.1049
lradius 32.6777
lwrist -9.01313
lhand -18.4507 22.264
lfingers 7.12502
lthumb 7.83538 52.0988
rfemur -0.288247 2.53611 17.1605
rtibia 26.2393
rfoot -23.0809 0.671726
rtoes 1.60059
lfemur -14.8563 -4.24514 -4.73414
ltibia 24.3754
lfoot -4.75793 2.02594
ltoes -13.251
221
root 13.4782 17.7705 3.59553 -173.104 -70.539 173.668
lowerback 13.8873 2.38681 2.26011
upperback 0.159992 3.47302 -0.193121
thorax -7.47563 1.58227 -2.1716
lowerneck -22.5844 -2.59198 -11.0148
upperneck 29.9899 -2.30914 6.76749
head 14.2853 -1.49782 4.17604
rclavicle -4.13969e-014 1.35174e-014
rhumerus -33.8171 -16.9706 -74.1139
rradius 31.1286
rwrist 6.97671
rhand -15.0074 8.52175
rfingers 7.12502
rthumb 11.1576 -21.1616
lclavicle -4.13969e-014 1.35174e-014
lhumerus -35.2261 15.3051 75.0709
lradius 32.6176
lwrist -8.83629
lhand -18.2122 22.1726
lfingers 7.12502
lthumb 8.06557 51.9987
rfemur 0.0488203 3.19967 16.8651
rtibia 26.0379
rfoot -23.1755 1.38364
rtoes 4.19979
lfemur -14.3253 -5.12801 -4.07169
ltibia 23.0589
lfoot -4.43894 2.46695
ltoes -12.0245
222
root 13.4162 17.7659 3.64695 -173.689 -69.9595 174.202
lowerback 13.8935 2.37243 2.21795
upperback 0.213116 3.44755 -0.152068
thorax -7.42834 1.57276 -2.09786
lowerneck -22.674 -2.52028 -11.0119
upperneck 30.0852 -2.2057 6.77561
head 14.3341 -1.45597 4.20212
rclavicle 4.07509e-015 1.39149e-014
rhumerus -33.5988 -17.1553 -74.146
rradius 31.2143
rwrist 7.43943
rhand -15.1265 8.22636
rfingers 7.12502
rthumb 11.0427 -21.4632
lclavicle 4.07509e-015 1.39149e-014
lhumerus -35.2959 14.782 75.1525
lradius 32.5502
lwrist -8.20088
lhand -18.385 22.6717
lfingers 7.12502
lthumb 7.89879 52.5042
rfemur 0.260322 3.58451 16.7235
rtibia 25.9476
rfoot -23.24 1.55882
rtoes 3.9267
lfemur -13.6957 -6.06772 -3.31704
ltibia 21.5954
lfoot -4.11594 2.62835
ltoes -11.2496
223
root 13.3503 17.7684 3.69564 -173.915 -69.32 174.327
lowerback 13.9116 2.37193 2.04416
upperback 0.259788 3.41346 -0.196686
thorax -7.39727 1.56188 -2.04022
lowerneck -22.732 -2.4305 -10.8921
upperneck 30.1308 -2.12692 6.79373
head 14.3547 -1.40805 4.20558
rclavicle 7.85199e-015 2.26615e-014
rhumerus -33.4408 -17.5084 -74.2255
rradius 31.2938
rwrist 7.78438
rhand -15.205 8.37271
rfingers 7.12502
rthumb 10.9671 -21.3208
lclavicle 7.85199e-015 2.26615e-014
lhumerus -35.5318 14.8956 74.8774
lradius 32.5836
lwrist -8.31339
lhand -18.4321 22.6731
lfingers 7.12502
lthumb 7.85326 52.5072
rfemur 0.382055 3.4984 16.4256
rtibia 25.9091
rfoot -23.2559 1.47149
rtoes 0.696419
lfemur -12.973 -7.09329 -2.73722
ltibia 20.0868
lfoot -3.59007 2.7283
ltoes -9.92043
224
root 13.2816 17.7713 3.75061 -174.161 -68.6125 174.369
lowerback 14.0545 2.4216 1.87484
upperback 0.318319 3.44675 -0.252248
thorax -7.41954 1.58154 -2.01592
lowerneck -22.546 -2.39394 -10.785
upperneck 29.9316 -2.15269 6.85771
head 14.2277 -1.39362 4.19943
rclavicle -1.31198e-014 -1.15295e-014
rhumerus -33.3247 -17.7053 -74.2821
rradius 31.3591
rwrist 7.67994
rhand -15.1567 8.46796
rfingers 7.12502
rthumb 11.0136 -21.2231
lclavicle -1.31198e-014 -1.15295e-014
lhumerus -35.8197 15.2923 74.5783
lradius 32.6209
lwrist -8.41336
lhand -18.7025 22.2748
lfingers 7.12502
lthumb 7.59235 52.1186
rfemur 0.666739 3.63684 16.0402
rtibia 25.7974
rfoot -23.223 1.7706
rtoes -0.929673
lfemur -12.1798 -8.10662 -2.25408
ltibia 18.7197
lfoot -3.02027 2.87868
ltoes -8.84209
225
root 13.2115 17.7582 3.81001 -174.909 -67.9215 174.926
lowerback 14.168 2.476 1.86082
upperback 0.423206 3.51664 -0.199645
thorax -7.37174 1.61646 -1.96826
lowerneck -22.4008 -2.36378 -10.6132
upperneck 29.7534 -2.13068 6.70054
head 14.1115 -1.38204 4.10009
rclavicle -5.45664e-014 5.56597e-015
rhumerus -33.2166 -17.8403 -74.2522
rradius 31.6628
rwrist 7.61454
rhand -15.075 8.26456
rfingers 7.12502
rthumb 11.0924 -21.4223
lclavicle -5.45664e-014 5.56597e-015
lhumerus -35.993 15.4959 74.5476
lradius 32.6733
lwrist -7.9649
lhand -19.8163 22.4258
lfingers 7.12502
lthumb 6.51716 52.3055
rfemur 1.02699 4.1445 15.8425
rtibia 25.6478
rfoot -23.1985 2.334
rtoes 0.335739
lfemur -11.4045 -9.05818 -1.5846
ltibia 17.4602
lfoot -2.42653 2.85296
ltoes -8.07898
